PathFileType	4	(X/Y/Z)	C:\Users\WrightLab\Desktop\Jo\P4V113.trc
DataRate	CameraRate	NumFrames	NumMarkers	Units	OrigDataRate	OrigDataStartFrame	OrigNumFrames
100.00	100.00	       24	19	mm	100.00	426	       567
Frame#	Time	Headset_Front			Headset_Back			Headset_Left			Headset_Right			Left_Shoulder			Right_Shoulder			Sternum			C7			Left Elbow			Right Elbow			Left Wrist			Right Wrist			Left ASIS			Right ASIS			S2			Left Knee			Right Knee			Left Ankle			Right Ankle			
		X1	Y1	Z1	X2	Y2	Z2	X3	Y3	Z3	X4	Y4	Z4	X5	Y5	Z5	X6	Y6	Z6	X7	Y7	Z7	X8	Y8	Z8	X9	Y9	Z9	X10	Y10	Z10	X11	Y11	Z11	X12	Y12	Z12	X13	Y13	Z13	X14	Y14	Z14	X15	Y15	Z15	X16	Y16	Z16	X17	Y17	Z17	X18	Y18	Z18	X19	Y19	Z19	

426	4.250	-177.43539	1751.63354	2427.05078	-27.84565	1772.36987	2283.38647							6.83580	1574.43750	2291.19238	-269.53683	1579.87329	2149.70654	-170.60556	1519.94751	2321.78149				112.19084	1225.05273	2389.53394	-414.54733	1235.06567	2123.28516	-9.27733	982.34210	2543.62598				-35.57273	1086.43481	2390.94995	-341.69037	1088.61340	2253.18628				-8.63103	597.84003	2378.34399	-314.39917	598.86072	2256.21167	34.02141	108.60633	2219.13330	-181.93805	105.12359	2213.57764	
427	4.260	-182.32393	1752.02307	2428.57910	-99.19218	1694.89746	2048.80713							2.98995	1574.72607	2294.47681	-272.39807	1578.84290	2150.04883	-174.40640	1519.74988	2323.36719				108.33696	1225.12402	2391.74634	-415.85410	1234.07373	2123.39233	-11.56122	980.05957	2543.67969				-39.88538	1086.45349	2394.58130	-343.25671	1088.85266	2255.27954				-12.75160	599.93030	2385.96338	-315.30121	598.51166	2255.87402	34.04508	109.65748	2219.03052	-182.01439	104.94033	2213.68872	
428	4.270	-186.59496	1751.78601	2428.84839	-103.29533	1694.76331	2049.12573							-0.42326	1574.56140	2297.36523	-275.11533	1578.91577	2151.73340	-178.48276	1519.55408	2325.16919				104.94167	1224.91956	2394.65112	-416.64645	1232.43042	2122.23486	-13.30680	976.65271	2542.62231				-43.46043	1085.66150	2397.43213	-347.37112	1088.51709	2255.98242				-16.08681	597.95642	2391.06909	-316.57468	598.29724	2252.08936	33.91738	110.61889	2219.19116	-182.06912	104.77007	2213.76978	
429	4.280	-191.66405	1751.79675	2429.82642	-108.13947	1694.18286	2049.50488							-4.02383	1574.99109	2300.43994	-277.46204	1577.75781	2152.45630	-181.77165	1519.20801	2325.76929				101.42870	1224.85925	2397.85303	-417.48087	1231.16077	2120.81030	-15.76066	974.31250	2542.84595				-47.22869	1085.37524	2400.08081	-349.13559	1088.66199	2257.07031				-20.83935	597.81842	2398.50317	-317.84726	597.94745	2252.71558	33.35432	114.02563	2220.92065	-182.24959	104.40347	2214.02954	
430	4.290	-197.10841	1752.30432	2430.98779	-112.81169	1693.40796	2049.26733							-7.53704	1574.73193	2303.16113				-185.70744	1518.56604	2327.26904				97.85289	1224.56311	2400.67773	-419.18823	1229.85730	2120.90601	-17.12197	971.49902	2541.99878				-51.55007	1085.54871	2403.24805	-353.01996	1087.89355	2257.96411				-26.32864	597.08752	2407.01196	-318.63489	597.65912	2253.24756	33.33755	116.06654	2222.48462	-182.30528	104.24844	2214.11108	
431	4.300	-202.28294	1752.20251	2431.57178	-118.06457	1693.18652	2049.75562							-10.95234	1574.74829	2306.03564				-189.69109	1518.46252	2329.15210				94.38992	1224.46375	2402.96021	-420.18512	1228.52295	2120.84229	-18.99500	968.63031	2541.55566				-55.15533	1085.02014	2406.12256	-354.92950	1087.81763	2259.25024				-32.56226	597.18439	2415.70142	-319.58026	597.78906	2251.95581	32.61841	119.93628	2224.57739	-182.53157	103.98878	2214.42920	
432	4.310				-122.94862	1692.61731	2049.99023							-14.81893	1574.81726	2309.38403				-193.05641	1518.48230	2330.36157				90.80824	1224.47437	2405.43628	-420.70642	1227.13867	2119.48877	-20.89335	966.86163	2542.31958				-58.87482	1084.93469	2408.39404	-358.25986	1087.60376	2258.72778				-37.87639	596.20117	2423.07471	-321.37354	597.73792	2248.69434	32.13555	124.36201	2226.24951	-182.44102	104.03164	2212.57666	
433	4.320				-128.30246	1692.66956	2051.25732							-18.36709	1575.13855	2312.42847				-196.72195	1517.73462	2331.46265				86.93988	1224.37122	2408.67480	-421.12427	1225.71533	2117.89893	-22.22421	963.92181	2541.85107				-62.92108	1084.88428	2411.36841	-360.49692	1087.50684	2259.66187				-46.16528	597.33209	2432.28052	-322.69254	596.84711	2249.70508	31.16194	127.92887	2228.03589	-182.58057	103.76930	2212.77661	
434	4.330				-133.61043	1692.43713	2051.75781							-21.95464	1574.85474	2315.48340				-200.50040	1517.49280	2332.70337				84.34840	1224.95630	2412.60400	-421.61838	1224.91418	2117.71631	-23.57640	961.70435	2541.33154				-66.48086	1084.79321	2413.64648	-362.88782	1086.92688	2259.29639				-53.19056	596.41833	2440.86914	-323.84448	596.29364	2250.47119	30.66342	133.15919	2230.57007	-182.57793	103.65855	2212.77710	
435	4.340				-138.71236	1691.58691	2051.96289							-25.54966	1575.38599	2318.50903				-204.07607	1516.51501	2333.92480				80.99232	1225.02844	2415.40186	-422.07590	1223.51282	2117.02075	-25.41883	960.07001	2542.28711				-70.09459	1084.14575	2415.85474	-363.59744	1086.75928	2254.31348				-60.22880	595.77527	2449.35034	-324.73761	595.53937	2247.95972	29.41399	138.63202	2234.40503	-182.74846	103.44673	2213.01733	
436	4.350				-144.36725	1691.58154	2053.02197							-29.08825	1574.71790	2321.77686				-207.95389	1516.92151	2336.08130				77.60911	1225.20190	2418.09937	-422.24142	1222.11035	2116.00049	-26.35511	958.23242	2542.18677				-73.94268	1084.13379	2418.69385	-365.42947	1086.10034	2253.50806				-66.90605	596.27045	2460.62769	-325.31082	595.14252	2247.61597	28.04413	144.38982	2236.53809				
437	4.360				-149.58064	1691.36487	2052.98950							-32.88223	1575.44250	2325.38770				-211.47093	1515.87549	2337.39111				74.55007	1225.14417	2420.68384	-422.51825	1221.19519	2115.46802	-28.03222	956.40784	2543.03320				-77.33557	1083.78369	2420.69336	-367.21841	1085.69202	2252.42676				-73.44949	597.61804	2471.20508	-326.38266	594.71130	2247.70020	26.91987	150.86324	2239.90601				
438	4.370				-155.18260	1690.27344	2053.37646							-36.25908	1575.07935	2328.51904				-214.69876	1515.34961	2338.33716				71.94941	1225.18335	2423.46216	-422.81506	1220.22559	2114.50586	-29.50027	954.73535	2543.50952				-80.75677	1083.14685	2423.10669	-368.95569	1085.80994	2252.45947				-80.78989	598.94220	2482.61084	-327.20596	594.58801	2248.02417	25.77637	158.03223	2243.75635				
439	4.380				-160.82777	1690.18787	2054.00806							-40.12700	1575.34277	2332.07373				-218.57240	1514.85193	2340.18164				69.28312	1225.14819	2426.08276	-423.29803	1218.99414	2113.76294	-30.89238	953.43427	2544.02612				-84.77405	1083.39624	2426.47290	-370.71347	1085.19067	2251.41187				-87.39005	601.15570	2492.48682	-328.09961	594.26526	2247.96753	23.57025	164.82770	2246.89087				
440	4.390				-166.74991	1689.55603	2055.31982							-43.78898	1575.44763	2335.28540				-222.25829	1514.69189	2342.33838				66.78651	1225.19678	2429.15234	-423.66989	1218.05615	2113.31445	-32.61125	952.44318	2545.87671				-88.31135	1083.45374	2429.28906	-371.72504	1084.61389	2250.03809				-94.52982	602.99799	2502.99609	-328.76849	594.18005	2247.82935	21.71053	173.01367	2251.33032				
441	4.400				-172.88824	1689.91467	2056.44385							-47.27784	1575.64490	2339.47168				-225.87743	1513.65686	2343.73389				64.30321	1225.68726	2432.25000	-423.96790	1216.96472	2112.66992	-33.96573	951.85791	2546.89917				-91.45321	1082.96509	2431.74634	-372.56552	1084.58105	2249.21558				-102.76087	604.67584	2511.81152	-329.39670	594.19574	2247.33765	19.93484	179.96498	2255.17505				
442	4.410				-178.89445	1689.74426	2057.06323							-50.83817	1576.21326	2342.82886				-228.44588	1513.65894	2344.79126				61.69806	1225.93347	2435.24243	-423.98297	1216.06543	2111.64331	-35.79601	950.77338	2548.60840				-94.88074	1082.99988	2434.23096	-373.64725	1084.36621	2248.20142				-109.57243	607.00439	2521.25000	-329.68298	594.15643	2246.78247	16.92195	187.19853	2260.96460				
443	4.420				-184.99440	1689.25867	2058.34033							-54.41631	1575.85901	2346.20215				-232.20322	1513.18054	2346.72729				59.07340	1226.57031	2438.48242	-424.15451	1215.51306	2111.13477	-37.87362	950.95673	2550.49683				-98.66309	1083.72192	2437.75537	-375.07761	1084.37024	2247.85742				-118.57632	609.73895	2529.54565	-329.93002	594.21576	2246.56152	15.33887	192.34195	2268.62085				
444	4.430				-191.41687	1689.56555	2060.29443							-58.20834	1576.93274	2349.88501				-235.91646	1513.26440	2348.42090				56.73556	1226.81726	2441.34814	-423.93799	1215.11292	2110.59839	-39.34600	950.16022	2551.64673				-101.89183	1084.24792	2440.16309	-375.37820	1084.27686	2246.93921				-125.96328	611.72083	2536.88647	-330.06775	594.20050	2246.21753	11.85952	197.38809	2275.54517				
445	4.440				-197.51666	1690.10120	2061.47900							-61.94236	1577.15466	2354.03564				-239.34302	1513.00452	2350.67920				54.31794	1227.40955	2444.73169	-423.85281	1214.51367	2109.93359	-41.57104	950.47925	2553.78662				-105.66077	1084.80713	2443.03979	-375.53809	1084.18579	2245.53931				-134.58044	614.84271	2544.30859	-329.87064	593.57611	2245.68555	9.79476	201.15421	2285.18286				
446	4.450				-203.93869	1690.10156	2063.38428							-65.18517	1578.51025	2357.77954				-242.66855	1513.10803	2352.15039				52.16598	1228.85986	2447.79321	-423.23080	1214.09509	2109.22437	-43.53407	950.29114	2555.45239				-109.55621	1085.53015	2446.19556							-143.36296	620.85028	2554.72046	-329.98367	593.59412	2245.73315	6.55675	203.67612	2294.91748				
447	4.460													-68.52876	1578.85095	2361.66919				-245.37029	1513.37427	2353.32739				49.19860	1229.48181	2450.85986	-423.15707	1213.97107	2109.18311	-45.86226	950.97894	2557.96118				-112.73067	1086.16064	2448.89136							-152.53180	621.50623	2557.52246	-330.19760	594.16840	2245.50317	2.37356	205.31870	2304.13892				
448	4.470													-72.41112	1579.92700	2365.94434				-248.83794	1513.10815	2355.18481				48.18063	1230.98718	2455.09839	-422.55264	1213.74243	2108.68286	-47.75567	951.32111	2559.94507				-116.47247	1087.25793	2451.93896							-160.96361	624.13141	2563.28052	-329.86664	593.55200	2245.53564	-0.19571	206.09259	2317.11914				
449	4.480													-76.03616	1580.64502	2369.97607				-252.12418	1513.53882	2357.17700				45.48471	1232.19446	2458.74438	-421.70560	1213.60034	2108.17505	-49.68536	951.67554	2562.04932				-120.22491	1087.99915	2454.69824							-169.53801	627.13690	2569.36133	-329.77631	593.57849	2245.47632	-5.23858	206.73914	2327.45703				
